<?xml version="1.0" encoding="UTF-8"?>
<svg width="300px" height="350px" viewBox="0 0 300 350" version="1.1" xmlns="http://www.w3.org/2000/svg" xmlns:xlink="http://www.w3.org/1999/xlink">
    <!-- Generator: Sketch 51.1 (57501) - http://www.bohemiancoding.com/sketch -->
    <title>left-side</title>
    <desc>Created with Sketch.</desc>
    <defs></defs>
    <g id="left-side" stroke="none" stroke-width="1" fill="none" fill-rule="evenodd">
        <g id="feature-bg-2" transform="translate(-226.000000, 0.000000)">
            <polygon id="Combined-Shape" fill="#0041FF" points="131.511111 260 88 173 264 173 220.488889 260"></polygon>
            <path d="M206.962601,59.592166 L264,174 L206.962601,174 L206.962601,59.592166 Z M147.326798,174 L88,174 L147.326798,55 L147.326798,174 Z" id="Combined-Shape" fill="#000DBB"></path>
            <path d="M483.511111,261.037313 L396.488889,261.037313 L417.511111,219 L462.488889,219 L483.511111,261.037313 Z M506,306.007463 L528,350 L352,350 L374,306.007463 L506,306.007463 Z" id="Combined-Shape" fill="#000DBB"></path>
            <path d="M294.962601,235.592166 L352,350 L294.962601,350 L294.962601,235.592166 Z M235.326798,350 L176,350 L235.326798,231 L235.326798,350 Z" id="Combined-Shape" fill="#000DBB"></path>
            <path d="M352.037313,174 L310,174 L310,84.0674157 L352.037313,0 L352.037313,174 Z M397.007463,174 L397.007463,86.0224719 L441,174 L397.007463,174 Z" id="Combined-Shape" fill="#000DBB"></path>
            <path d="M323.155556,292.311111 L380.844444,292.311111 L352,350 L323.155556,292.311111 Z M293.337654,232.675308 L264,174 L440,174 L410.662346,232.675308 L293.337654,232.675308 Z" id="Combined-Shape" fill="#0041FF"></path>
            <path d="M220.488889,88.9626866 L307.511111,88.9626866 L286.488889,131 L241.511111,131 L220.488889,88.9626866 Z M198,43.9925373 L176,0 L352,0 L330,43.9925373 L198,43.9925373 Z" id="Combined-Shape" fill="#0041FF"></path>
        </g>
    </g>
</svg>